<svg width="284" height="284" viewBox="0 0 284 284" fill="none" xmlns="http://www.w3.org/2000/svg">
  <path d="M221.8 258.9H60.6C39.8 258.9 22.9 242 22.9 221.2V60C22.9 39.2001 39.8 22.3 60.6 22.3H221.8C242.6 22.3 259.5 39.2001 259.5 60V221.2C259.5 242.1 242.6 258.9 221.8 258.9Z" fill="url(#paint0_linear_24_2)" />
  <path d="M221.8 259.9H60.6C39.3 259.9 21.9 242.5 21.9 221.2V60C21.9 38.7001 39.3 21.3 60.6 21.3H221.8C243.1 21.3 260.5 38.7001 260.5 60V221.2C260.5 242.6 243.1 259.9 221.8 259.9ZM60.6 23.3C40.4 23.3 23.9 39.8 23.9 60V221.2C23.9 241.4 40.4 257.9 60.6 257.9H221.8C242 257.9 258.5 241.4 258.5 221.2V60C258.5 39.8 242 23.3 221.8 23.3H60.6Z" fill="url(#paint1_linear_24_2)" />
  <path d="M207.8 200.3C202.7 200.3 198.5 203.9 197.6 208.7H161.3L164.8 202L159.5 199.2L148.1 220.7L153.4 223.5L158.1 214.7H198.1C199.7 218.5 203.4 221.2 207.8 221.2C213.6 221.2 218.2 216.5 218.2 210.8C218.2 205.1 213.6 200.3 207.8 200.3Z" fill="white" />
  <path d="M146.1 208.8H98C92.3 208.8 89 207.2 89 207.2H88.9C82.9 204.4 80.6 199.5 79.5 197.1C79.5 197.1 77.8 193.5 77.8 186.7L77.9 81.8C77.9 81.5 77.9 80.7 78 80.4C78.5 78.8 81.1 72.8 88 72.8C94.8 72.8 97.1 78.5 97.6 79.9C97.6 80.2 97.7 81 97.7 81.3V175.5C97.7 179.1 99 182.5 101.4 185.2L105.8 181.2C104.4 179.7 103.6 177.7 103.6 175.6V81.3C103.6 81.2 103.6 79.3 103.3 78.3C101.7 73 96.7 66.8 87.9 66.8C79.2 66.8 74 73.2 72.2 78.6C71.9 79.6 71.9 81.6 71.9 81.7L71.8 186.6C71.8 194.8 73.9 199.2 74.1 199.6C75.4 202.4 78.4 208.9 86.4 212.6C87.1 212.9 91.2 214.8 98.1 214.8H143.1L146.1 208.8Z" fill="white" />
  <defs>
    <linearGradient id="paint0_linear_24_2" x1="67.2876" y1="12.6188" x2="215.103" y2="268.643" gradientUnits="userSpaceOnUse">
      <stop stop-color="#131313" />
      <stop offset="1" />
    </linearGradient>
    <linearGradient id="paint1_linear_24_2" x1="66.7944" y1="11.7644" x2="215.596" y2="269.497" gradientUnits="userSpaceOnUse">
      <stop stop-color="#1C1C1C" />
      <stop offset="1" />
    </linearGradient>
  </defs>
</svg>
